<svg width="1268" height="1209" xmlns="http://www.w3.org/2000/svg">
 <title>cf logo</title>

 <g id="Layer_1">
  <title>Layer 1</title>
  <rect stroke="null" id="svg_55" height="1293.33328" width="1309.33333" y="-21.83332" x="-24.66666" opacity="NaN" stroke-width="0" fill="#ffffff"/>
  <path id="svg_15" d="m-416.55399,-0.85178c-0.04014,0 -0.07267,0.03254 -0.07267,0.07267c0,0.04014 0.03254,0.07267 0.07267,0.07267c0.04014,0 0.07267,-0.03254 0.07267,-0.07267c0,-0.04014 -0.03254,-0.07267 -0.07267,-0.07267zm0,0.13034c-0.03181,0 -0.05767,-0.02587 -0.05767,-0.05767c0,-0.0318 0.02587,-0.05767 0.05767,-0.05767c0.03181,0 0.05767,0.02587 0.05767,0.05767c0,0.03181 -0.02587,0.05767 -0.05767,0.05767zm-0.00001,-0.11204c-0.00277,0 -0.005,0.00224 -0.005,0.005l0,0.04611l-0.03023,0.01322c-0.00253,0.00111 -0.00368,0.00406 -0.00257,0.00659c0.00082,0.00188 0.00265,0.003 0.00458,0.003c0.00067,0 0.00136,-0.00014 0.00201,-0.00043l0.03313,-0.01449c0.00003,-0.00001 0.00005,-0.00002 0.00007,-0.00003l0.00002,-0.00001c0.00008,-0.00003 0.00012,-0.0001 0.00019,-0.00013c0.00052,-0.00026 0.00101,-0.00057 0.0014,-0.00098c0.00017,-0.00017 0.00027,-0.00039 0.0004,-0.00059c0.00024,-0.00032 0.00051,-0.00064 0.00065,-0.00102c0.00012,-0.0003 0.00013,-0.00063 0.00019,-0.00095c0.00007,-0.00033 0.00019,-0.00061 0.00019,-0.00094l0,-0.04938c0,-0.00276 -0.00224,-0.005 -0.00501,-0.005z" stroke-width="0" stroke="null" fill="#000000"/>
  <path stroke="null" id="svg_16" d="m219.62372,519.31692c-24.30081,0 -44,19.69919 -44,44c0,24.30081 19.69919,44 44,44c24.30081,0 44,-19.69919 44,-44c0,-24.30081 -19.69919,-44 -44,-44zm0,78.91482c-19.25719,0 -34.91785,-15.66369 -34.91785,-34.91482c0,-19.25416 15.66066,-34.91785 34.91785,-34.91785c19.25719,0 34.91482,15.66066 34.91482,34.91785c0,19.25719 -15.66369,34.91482 -34.91482,34.91482zm-0.00303,-67.83762c-1.67414,0 -3.02436,1.35627 -3.02436,3.02738l0,27.91551l-18.30356,8.0044c-1.53186,0.67208 -2.22815,2.45824 -1.55608,3.99009c0.49649,1.13527 1.60451,1.8134 2.77006,1.8134c0.40567,0 0.82042,-0.08174 1.21398,-0.25733l20.05945,-8.77336c0.01514,-0.00605 0.02725,-0.01211 0.03936,-0.01816l0.01211,-0.00605c0.04541,-0.01816 0.06963,-0.06055 0.11201,-0.07568c0.31485,-0.15742 0.6085,-0.34209 0.84464,-0.59034c0.10293,-0.10293 0.16045,-0.23614 0.23916,-0.3542c0.14531,-0.19375 0.30577,-0.38448 0.39356,-0.61759c0.07266,-0.18164 0.07871,-0.37842 0.11504,-0.57218c0.03936,-0.19678 0.11504,-0.36934 0.11504,-0.56612l0,-29.89542c0,-1.66809 -1.35627,-3.02436 -3.03041,-3.02436z" stroke-width="0" fill="#5656ff"/>
  <text xml:space="preserve" text-anchor="start" font-family="'Rasa'" font-size="37" id="svg_17" y="673.33333" x="151.33333" stroke-width="0" fill="#191919">Cooldowns</text>
  <text xml:space="preserve" text-anchor="start" font-family="'Rasa'" font-size="37" id="svg_19" y="713.33333" x="72.66738" stroke-width="0" fill="#666666">Customize cooldowns</text>
  <path stroke="null" id="svg_20" d="m1019.64285,864.99166c-28.96463,0 -52.44468,17.61104 -52.44468,39.33497c0,7.41932 2.77586,14.35868 7.55233,20.2804l-7.55233,16.55654l21.02643,-5.39298c8.76273,4.93003 19.61815,7.88803 31.41825,7.88803c28.96453,0 52.44532,-17.61114 52.44532,-39.33199s-23.48078,-39.33497 -52.44532,-39.33497zm3.25164,61.57325l-7.3758,0l0,-7.07666l7.3758,0l0,7.07666zm-0.35941,-12.28963l-6.65697,0l-0.65882,-30.2808l7.9153,0l-0.59952,30.2808l0,0z" stroke-width="0" fill="#5656ff"/>
  <text xml:space="preserve" text-anchor="start" font-family="'Rasa'" font-size="37" id="svg_21" y="1013.44748" x="914.00002" stroke-width="0" fill="#191919">Quick support</text>
  <text xml:space="preserve" text-anchor="start" font-family="'Rasa'" font-size="37" id="svg_22" y="1052.72945" x="860.6674" stroke-width="0" fill="#666666">Usually taking &lt;1 hour</text>
  <path id="svg_23" d="m668.0451,909.8717c6.13263,-7.05089 7.36532,-16.67293 4.02918,-24.765l-12.31177,14.35722l-12.13637,-2.3596l-4.02137,-11.6908l12.28063,-14.32387c-8.44734,-2.12523 -17.75373,0.44049 -23.85934,7.46348c-6.43913,7.40395 -7.4929,17.65697 -3.50741,25.97557l-32.09172,36.90411c-3.41472,3.92355 -2.99872,9.8744 0.92486,13.28779c3.92358,3.41098 9.87323,2.99872 13.28677,-0.92488l32.05413,-36.8677c8.82354,2.84397 18.88351,0.38131 25.35243,-7.0563l0,0z" stroke-width="0" stroke="null" fill="#5656ff"/>
  <text xml:space="preserve" text-anchor="start" font-family="'Rasa'" font-size="37" id="svg_24" y="1012.36475" x="517.04164" stroke-width="0" fill="#191919">Regular updates</text>
  <text xml:space="preserve" text-anchor="start" font-family="'Rasa'" font-size="37" id="svg_25" y="1053.69813" x="458.08329" stroke-width="0" fill="#666666">Bug fixes, additions, etc.</text>
  <path id="svg_26" d="m660.01866,535.7019l-9.37983,-5.89549c-2.36656,-1.48599 -5.48492,-0.77078 -6.97609,1.59627l-3.69712,5.88449l17.94401,11.27023l3.70004,-5.88176c1.48552,-2.36987 0.77654,-5.49107 -1.591,-6.97375l0,0zm-51.98448,52.42459l17.94499,11.27012l29.24736,-46.55944l-17.95353,-11.27306l-29.23882,46.56238l0,0zm-2.74109,14.31911l-0.39634,10.58583l9.36544,-4.95369l8.70316,-4.59524l-17.31211,-10.87952l-0.36015,9.84262l0,0l0,0z" stroke-width="0" stroke="null" fill="#5656ff"/>
  <text xml:space="preserve" text-anchor="start" font-family="'Rasa'" font-size="37" id="svg_27" y="357.69814" x="507.61861" stroke-width="0" fill="#191919">Fast and efficient</text>
  <text stroke="null" xml:space="preserve" text-anchor="start" font-family="'Rasa'" font-size="37" id="svg_28" y="715.03147" x="453.46428" stroke-width="0" fill="#666666">Edit commands in-game</text>
  <path id="svg_29" d="m1037.10964,538.36702c-4.86521,-4.72573 -10.11261,-8.51133 -14.41709,-9.02742c-0.23433,-0.03348 -0.47704,-0.053 -0.73369,-0.05858l-28.32925,0c-0.45193,0 -0.89828,0.17575 -1.2163,0.50214c-0.31523,0.31802 -0.50214,0.76437 -0.50214,1.21909l0,71.8344c0,0.45193 0.17575,0.88433 0.50214,1.21351c0.32639,0.3236 0.756,0.49935 1.2163,0.49935l51.22978,0c0.45193,0 0.88433,-0.17296 1.21072,-0.49935c0.32639,-0.32639 0.50772,-0.75879 0.50772,-1.21351l0,-47.80126c-0.10043,-5.54868 -4.44676,-11.59951 -9.46819,-16.66837zm6.02572,62.74282l-47.79289,0l0,-68.39751l26.61918,0l0,0.00558c1.16051,-0.06974 2.16201,1.07682 2.92917,3.69912c0.69742,2.49677 0.87317,5.75233 0.87038,8.00919c0.00558,1.65428 -0.07532,2.76458 -0.07532,2.76458l-0.13669,1.81887l1.83003,0.01953c0.00837,0 4.22916,0.05021 8.36906,0.99034c3.97809,0.85922 7.08859,2.57209 7.37872,4.51092c0.01116,0.17296 0.01395,0.34592 0.01116,0.50772l0,46.07166l-0.00279,0z" stroke-width="0" fill="#5656ff"/>
  <path id="svg_30" d="m-275.1682,439.98419c-0.00872,-0.00847 -0.01813,-0.01526 -0.02584,-0.01618c-0.00042,-0.00006 -0.00086,-0.0001 -0.00132,-0.00011l-0.05078,0c-0.00081,0 -0.00161,0.00032 -0.00218,0.0009c-0.00057,0.00057 -0.0009,0.00137 -0.0009,0.00219l0,0.12875c0,0.00081 0.00032,0.00159 0.0009,0.00218c0.00059,0.00058 0.00136,0.0009 0.00218,0.0009l0.09182,0c0.00081,0 0.00159,-0.00031 0.00217,-0.0009c0.00059,-0.00059 0.00091,-0.00136 0.00091,-0.00218l0,-0.08568c-0.00018,-0.00995 -0.00797,-0.02079 -0.01697,-0.02988zm0.0108,0.11246l-0.08566,0l0,-0.12259l0.04771,0l0,0.00001c0.00208,-0.00013 0.00388,0.00193 0.00525,0.00663c0.00125,0.00448 0.00157,0.01031 0.00156,0.01436c0.00001,0.00297 -0.00014,0.00496 -0.00014,0.00496l-0.00025,0.00326l0.00328,0.00004c0.00002,0 0.00758,0.00009 0.015,0.00178c0.00713,0.00154 0.01271,0.00461 0.01323,0.00809c0.00002,0.00031 0.00003,0.00062 0.00002,0.00091l0,0.08258l-0.00001,0z" stroke-width="0" fill="#5656ff"/>
  <text xml:space="preserve" text-anchor="start" font-family="'Rasa'" font-size="37" id="svg_31" y="673.33333" x="876.1257" stroke-width="0" fill="#191919">More options in files</text>
  <text stroke="null" xml:space="preserve" text-anchor="start" font-family="'Rasa'" font-size="37" id="svg_32" y="713.33333" x="866.00072" stroke-width="0" fill="#666666">Add longer cooldowns</text>
  <text stroke="null" xml:space="preserve" text-anchor="start" font-family="'Rasa'" font-size="37" id="svg_33" y="753.33333" x="879.33405" stroke-width="0" fill="#666666">(more than 30 days)</text>
  <text stroke="null" xml:space="preserve" text-anchor="start" font-family="'Rasa'" font-size="37" id="svg_34" y="793.33333" x="936.66739" stroke-width="0" fill="#666666">in the files</text>
  <path id="svg_35" d="m153.25348,885.4881l0,0l0,-0.0098l0,0.0098zm0.0049,-0.0098l28.26412,28.27391l-28.26901,28.26412l10.39273,10.39763l38.66174,-38.66664l-38.66174,-38.66664l-10.38783,10.39763zm50.08297,66.2304l70.61866,0l0,-14.68794l-70.61866,0l0,14.68794zm21.23115,-30.61007l49.38751,0l0,-14.68794l-49.38751,0l0,14.68794zm-21.23115,-45.30291l0,14.69773l70.61866,0l0,-14.69773l-70.61866,0z" stroke-width="0" fill="#5656ff"/>
  <text xml:space="preserve" text-anchor="start" font-family="'Rasa'" font-size="37" id="svg_36" y="1013.44748" x="34.29239" stroke-width="0" fill="#191919">Overwrite other commands</text>
  <text style="cursor: move;" xml:space="preserve" text-anchor="start" font-family="'Rasa'" font-size="37" id="svg_37" y="1052.72945" x="59.33407" stroke-width="0" fill="#666666">Overwrite any plugin or</text>
  <text xml:space="preserve" text-anchor="start" font-family="'Rasa'" font-size="37" id="svg_38" y="1094.06279" x="103.33407" stroke-width="0" fill="#666666">Bukkit command</text>
  <text xml:space="preserve" text-anchor="start" font-family="'Rasa'" font-size="37" id="svg_43" y="672.36482" x="491.58926" stroke-width="0" fill="#191919">Easily edit in-game</text>
  <path id="svg_45" d="m624.04238,232.03928l16.25465,22.51868l-6.70245,2.65756l20.4677,19.29357l-6.69945,3.2221l25.30236,32.3081l-42.91731,-24.75883l8.18588,-3.43831l-26.66567,-15.85827l9.5552,-4.90072l-28.1551,-16.63601l31.3742,-14.40787z" stroke-width="0" stroke="null" fill="#5656ff"/>
  <path id="svg_48" d="m235.81408,266.32929l-8.28349,0l0,-10.62342c0,0 0,0 0,-0.00375c0,-8.95847 7.29352,-16.24824 16.25199,-16.24824c8.96597,0 16.25574,7.28977 16.25574,16.24824c0,0 0,0 0,0l0,10.62717l7.49977,0l0,-10.62717l-0.00375,0c-0.00375,-13.11709 -10.63467,-23.74801 -23.75176,-23.74801s-23.75176,10.63467 -23.75176,23.75176l0,10.62342l-48.90222,0l0,45.62482l64.68548,0l0,-45.62482z" stroke-width="0" stroke="null" fill="#5656ff"/>
  <text style="cursor: move;" xml:space="preserve" text-anchor="start" font-family="'Rasa'" font-size="37" id="svg_49" y="358.16667" x="76.12497" stroke-width="0" stroke="null" fill="#191919">Easy to use menus</text>
  <text stroke="null" xml:space="preserve" text-anchor="start" font-family="'Rasa'" font-size="37" id="svg_50" y="393.69813" x="77.46427" stroke-width="0" fill="#666666">And it looks good :)</text>
  <path id="svg_51" d="m989.41784,304.02477l27.99456,-27.9944l-27.99456,-27.9946l16.00031,-15.99858l43.99826,43.99318l-43.99826,44.00683" stroke-width="0" stroke="null" fill="#5656ff"/>
  <text xml:space="preserve" text-anchor="start" font-family="'Rasa'" font-size="37" id="svg_54" y="356.83333" x="813.09372" stroke-width="0" stroke="null" fill="#191919">Change whatever you want</text>
  <rect id="svg_56" height="100" width="1122.66667" y="43.5" x="72.66668" stroke-width="0" stroke="null" fill="#00007f"/>
  <text font-weight="normal" fill="#ffffff" x="496.81246" y="115.845" id="svg_67" stroke-width="0" font-size="82" font-family="'Rasa'" text-anchor="start" xml:space="preserve">Features</text>
 </g>
</svg>