<svg width="500" height="500" xmlns="http://www.w3.org/2000/svg">
 <title>cf logo</title>
 <defs>
  <linearGradient y2="1" x2="1" y1="0.27032" x1="0.23828" id="svg_7">
   <stop offset="0" stop-opacity="0.99609" stop-color="#7f00ff"/>
   <stop offset="1" stop-opacity="0.99609" stop-color="#007fff"/>
  </linearGradient>
 </defs>
 <g id="Layer_1">
  <title>Layer 1</title>
  <path id="svg_1" d="m284.36821,330.89971l-13.36589,-46.78062c3.917,-3.43596 7.59347,-7.11244 11.0638,-11.04662l46.74626,13.36589c4.9306,-7.18116 9.17402,-14.80899 12.97075,-22.72889l-34.78911,-33.67242c1.66644,-4.94778 3.10955,-9.98147 4.14033,-15.16977l46.8837,-11.75099c0.3436,-4.32931 0.67001,-8.6758 0.67001,-13.10819s-0.3436,-8.7617 -0.67001,-13.09101l-46.8837,-11.75099c-1.04797,-5.1883 -2.49107,-10.22199 -4.14033,-15.16977l34.80629,-33.67242c-3.81392,-7.90271 -8.05733,-15.54773 -12.98793,-22.72889l-46.74626,13.34871c-3.45314,-3.917 -7.1468,-7.59347 -11.0638,-11.04662l13.36589,-46.76344c-7.18116,-4.91342 -14.82617,-9.17402 -22.74607,-12.97075l-33.67242,34.80629c-4.9306,-1.66644 -9.98147,-3.09237 -15.16977,-4.14033l-11.73381,-46.90087c-4.34649,-0.32642 -8.6758,-0.67001 -13.10819,-0.67001s-8.7617,0.3436 -13.09101,0.67001l-11.75099,46.90087c-5.1883,1.04797 -10.22199,2.47389 -15.16977,4.14033l-33.67242,-34.80629c-7.90271,3.84828 -15.53055,8.09169 -22.71171,13.02229l13.36589,46.76344c-3.917,3.43596 -7.61065,7.12962 -11.04662,11.02944l-46.76344,-13.36589c-4.9306,7.18116 -9.17402,14.82617 -12.97075,22.74607l34.80629,33.67242c-1.64926,4.94778 -3.09237,9.98147 -4.14033,15.16977l-46.90087,11.75099c-0.32642,4.32931 -0.67001,8.6758 -0.67001,13.09101s0.3436,8.7617 0.67001,13.10819l46.90087,11.75099c1.04797,5.1883 2.49107,10.22199 4.14033,15.16977l-34.80629,33.67242c3.79674,7.90271 8.04015,15.54773 12.97075,22.72889l46.76344,-13.36589c3.43596,3.93418 7.12962,7.59347 11.04662,11.04662l-13.36589,46.78062c7.18116,4.91342 14.82617,9.15684 22.72889,12.97075l33.67242,-34.80629c4.94778,1.66644 9.98147,3.10955 15.16977,4.14033l11.75099,46.8837c4.32931,0.3436 8.6758,0.67001 13.10819,0.67001s8.7617,-0.3436 13.10819,-0.67001l11.73381,-46.8837c5.1883,-1.04797 10.23917,-2.49107 15.16977,-4.14033l33.67242,34.80629c7.88553,-3.84828 15.53055,-8.09169 22.71171,-13.00511zm-96.41308,-82.48026c-32.2465,0 -58.39417,-26.14767 -58.39417,-58.39417s26.14767,-58.37699 58.39417,-58.37699s58.37699,26.13049 58.37699,58.37699s-26.13049,58.39417 -58.37699,58.39417zm266.14958,122.06253c0.32642,-9.39735 -1.03079,-18.96651 -3.95136,-28.4154l21.37168,-30.4598c-3.2298,-6.01293 -6.87192,-11.71663 -11.01226,-16.90493l-36.45555,7.64501c-7.35296,-6.25345 -15.71952,-11.13252 -24.6702,-14.62002l-10.49686,-35.71682c-6.63141,-1.16823 -13.34871,-1.80388 -20.15191,-1.82106l-16.73313,33.26011c-4.79317,0.92771 -9.58633,2.19902 -14.2936,4.0029c-4.41521,1.68362 -8.53836,3.77956 -12.48972,6.06447l-34.46269,-14.07026c-5.1024,4.50111 -9.75813,9.363 -13.96718,14.6372l15.58209,33.80986c-4.44957,8.504 -7.50758,17.66084 -8.91632,27.23l-32.48702,18.2106c0.32642,6.66577 1.30567,13.33153 2.81749,20.01448l36.14632,8.91632c3.96854,9.00222 9.29428,17.05955 15.7367,23.93147l-6.04729,36.73043c5.49754,3.95136 11.33867,7.35296 17.40315,10.30788l29.46337,-22.67735c9.20838,2.42235 18.84625,3.35006 28.55284,2.57697l24.94508,27.60795c3.43596,-0.97925 6.85474,-2.02722 10.23917,-3.3157c3.00647,-1.13387 5.84113,-2.47389 8.6758,-3.8311l0.63565,-37.19428c7.81681,-5.82395 14.48258,-12.83332 19.79114,-20.71885l37.12556,-2.30209c2.61133,-6.16755 4.79317,-12.57562 6.32217,-19.15549l-28.6731,-23.74249zm-71.51954,34.47987c-20.63295,7.86835 -43.72261,-2.47389 -51.60814,-23.10684s2.45671,-43.73979 23.08966,-51.62532c20.63295,-7.86835 43.75697,2.47389 51.6425,23.10684c7.86835,20.63295 -2.49107,43.73979 -23.12402,51.62532z" fill="url(#svg_7)"/>
 </g>
</svg>