<svg width="1268" height="193" xmlns="http://www.w3.org/2000/svg">
 <title>cf logo</title>

 <g id="Layer_1">
  <title>Layer 1</title>
  <rect id="svg_1" height="299" width="1374" y="-31" x="-65" stroke-width="0" fill="#ffffff"/>
  <path fill="#000000" stroke="null" stroke-width="0" d="m-416.55399,-0.85178c-0.04014,0 -0.07267,0.03254 -0.07267,0.07267c0,0.04014 0.03254,0.07267 0.07267,0.07267c0.04014,0 0.07267,-0.03254 0.07267,-0.07267c0,-0.04014 -0.03254,-0.07267 -0.07267,-0.07267zm0,0.13034c-0.03181,0 -0.05767,-0.02587 -0.05767,-0.05767c0,-0.0318 0.02587,-0.05767 0.05767,-0.05767c0.03181,0 0.05767,0.02587 0.05767,0.05767c0,0.03181 -0.02587,0.05767 -0.05767,0.05767zm-0.00001,-0.11204c-0.00277,0 -0.005,0.00224 -0.005,0.005l0,0.04611l-0.03023,0.01322c-0.00253,0.00111 -0.00368,0.00406 -0.00257,0.00659c0.00082,0.00188 0.00265,0.003 0.00458,0.003c0.00067,0 0.00136,-0.00014 0.00201,-0.00043l0.03313,-0.01449c0.00003,-0.00001 0.00005,-0.00002 0.00007,-0.00003l0.00002,-0.00001c0.00008,-0.00003 0.00012,-0.0001 0.00019,-0.00013c0.00052,-0.00026 0.00101,-0.00057 0.0014,-0.00098c0.00017,-0.00017 0.00027,-0.00039 0.0004,-0.00059c0.00024,-0.00032 0.00051,-0.00064 0.00065,-0.00102c0.00012,-0.0003 0.00013,-0.00063 0.00019,-0.00095c0.00007,-0.00033 0.00019,-0.00061 0.00019,-0.00094l0,-0.04938c0,-0.00276 -0.00224,-0.005 -0.00501,-0.005l-0.00002,0.00003z" id="svg_15"/>
  <path fill="#5656ff" stroke-width="0" d="m-275.1682,439.98419c-0.00872,-0.00847 -0.01813,-0.01526 -0.02584,-0.01618c-0.00042,-0.00006 -0.00086,-0.0001 -0.00132,-0.00011l-0.05078,0c-0.00081,0 -0.00161,0.00032 -0.00218,0.0009c-0.00057,0.00057 -0.0009,0.00137 -0.0009,0.00219l0,0.12875c0,0.00081 0.00032,0.00159 0.0009,0.00218c0.00059,0.00058 0.00136,0.0009 0.00218,0.0009l0.09182,0c0.00081,0 0.00159,-0.00031 0.00217,-0.0009c0.00059,-0.00059 0.00091,-0.00136 0.00091,-0.00218l0,-0.08568c-0.00018,-0.00995 -0.00797,-0.02079 -0.01697,-0.02988l0.00001,0.00001zm0.0108,0.11246l-0.08566,0l0,-0.12259l0.04771,0l0,0.00001c0.00208,-0.00013 0.00388,0.00193 0.00525,0.00663c0.00125,0.00448 0.00157,0.01031 0.00156,0.01436c0.00001,0.00297 -0.00014,0.00496 -0.00014,0.00496l-0.00025,0.00326l0.00328,0.00004c0.00002,0 0.00758,0.00009 0.015,0.00178c0.00713,0.00154 0.01271,0.00461 0.01323,0.00809c0.00002,0.00031 0.00003,0.00062 0.00002,0.00091l0,0.08258l-0.00001,0l0.00001,-0.00003z" id="svg_30"/>
  <rect fill="#00007f" stroke="null" stroke-width="0" x="72.66668" y="43.5" width="1122.66667" height="100" id="svg_56"/>
  <text style="cursor: move;" xml:space="preserve" text-anchor="start" font-family="'Rasa'" font-size="82" stroke-width="0" id="svg_67" y="115.845" x="480.08591" fill="#ffffff" font-weight="normal">Reviewing</text>
 </g>
</svg>